<?xml version="1.0" standalone="no"?>
<!DOCTYPE svg PUBLIC "-//W3C//DTD SVG 20010904//EN"
 "http://www.w3.org/TR/2001/REC-SVG-20010904/DTD/svg10.dtd">
<svg version="1.0" xmlns="http://www.w3.org/2000/svg"
 width="1024.000000pt" height="1024.000000pt" viewBox="0 0 1024.000000 1024.000000"
 preserveAspectRatio="xMidYMid meet">

<g transform="translate(0.000000,1024.000000) scale(0.100000,-0.100000)"
fill="#000000" stroke="none">
<path d="M3111 6159 c-23 -7 -37 -19 -44 -40 -7 -16 -19 -29 -28 -29 -10 0
-27 -12 -38 -26 -21 -27 -21 -30 -21 -1010 0 -727 3 -990 12 -1009 19 -41 60
-47 329 -43 226 3 249 5 268 22 12 11 21 25 21 33 0 8 14 19 31 25 59 20 59
24 59 595 l0 518 35 -65 c34 -62 35 -68 35 -170 0 -100 2 -109 29 -152 17 -26
41 -54 55 -63 30 -20 150 -30 232 -20 50 6 64 13 101 48 23 23 56 54 72 69 16
15 64 92 106 172 43 80 84 154 91 163 12 16 13 15 14 -11 0 -16 -18 -62 -40
-103 l-41 -73 3 -470 3 -469 23 -23 c22 -23 28 -23 275 -26 280 -4 318 1 342
47 8 16 26 32 40 35 15 4 30 17 35 32 6 16 10 402 10 1012 -1 1081 3 1014 -61
1032 -44 13 -504 13 -549 0 -21 -6 -61 -35 -100 -73 -56 -54 -79 -89 -169
-256 -76 -140 -101 -195 -92 -201 10 -6 10 -14 -3 -38 -17 -33 -56 -48 -85
-33 -10 6 -83 128 -162 271 -79 144 -155 275 -169 291 -15 19 -40 34 -65 39
-53 12 -510 11 -554 -1z"/>
<path d="M6060 6159 c-104 -11 -246 -50 -314 -87 -27 -15 -90 -65 -138 -111
-105 -99 -151 -181 -173 -306 -20 -114 -21 -1094 0 -1208 34 -190 148 -327
323 -388 145 -51 154 -51 742 -56 602 -5 619 -4 645 46 8 16 25 31 38 35 46
11 47 27 47 546 0 268 -3 496 -6 505 -16 40 -52 45 -307 45 -135 0 -259 -3
-277 -6 -22 -5 -38 -17 -52 -40 -10 -17 -29 -35 -42 -38 -39 -10 -46 -45 -46
-231 l0 -175 35 0 c33 0 35 -2 35 -35 l0 -35 -155 0 c-178 0 -213 9 -242 62
-17 30 -18 65 -18 423 0 418 2 438 51 470 32 21 37 19 30 -10 l-6 -25 334 0
c356 0 381 3 392 47 4 13 13 23 21 23 7 0 25 11 38 25 l25 24 0 229 0 229 -26
24 -26 24 -421 1 c-232 1 -460 -2 -507 -7z"/>
</g>
</svg>
